<svg width="46" height="54" viewBox="0 0 46 54" fill="none" xmlns="http://www.w3.org/2000/svg">
<g clip-path="url(#clip0_44_862)">
<path d="M23 49.9148C10.3074 49.9148 0.0852051 39.6926 0.0852051 27C0.0852051 14.3074 10.3074 4.08521 23 4.08521C35.6926 4.08521 46 14.3074 46 27C46 39.6926 35.6926 49.9148 23 49.9148ZM23 9.19632C13.2037 9.19632 5.19632 17.2037 5.19632 27C5.19632 36.7963 13.2037 44.8037 23 44.8037C32.7963 44.8037 40.8037 36.7963 40.8037 27C40.8037 17.2037 32.7963 9.19632 23 9.19632Z" fill="#EDF5FB"/>
<path d="M34.1593 22.7408V21.0371C34.1593 19.8445 33.2223 18.8223 31.9445 18.8223H14.0556C12.863 18.8223 11.8408 19.7593 11.8408 21.0371V22.7408H34.1593Z" fill="#0061AE"/>
<path d="M11.8408 25.0408V32.963C11.8408 34.1556 12.7779 35.1778 14.0556 35.1778H31.9445C33.1371 35.1778 34.1593 34.2408 34.1593 32.963V25.0408H11.8408ZM29.3038 32.3667C28.7927 32.3667 28.2816 32.1111 27.8556 31.7704C27.5149 32.1111 27.0038 32.3667 26.4075 32.3667C25.3001 32.3667 24.363 31.4297 24.363 30.3223C24.363 29.2148 25.3001 28.2778 26.4075 28.2778C26.9186 28.2778 27.4297 28.5334 27.8556 28.8741C28.1964 28.5334 28.7075 28.2778 29.3038 28.2778C30.4112 28.2778 31.3482 29.2148 31.3482 30.3223C31.3482 31.5148 30.4112 32.3667 29.3038 32.3667Z" fill="#0061AE"/>
</g>
<defs>
<clipPath id="clip0_44_862">
<rect width="46" height="54" fill="white"/>
</clipPath>
</defs>
</svg>
